<svg xmlns="http://www.w3.org/2000/svg" xmlns:xlink="http://www.w3.org/1999/xlink" version="1.1" x="0px" y="0px" viewBox="0 0 100 100" enable-background="new 0 0 100 100" xml:space="preserve"><g><g><path fill="#000000" d="M49.966,5.03C25.132,5.03,5,25.162,5,49.996C5,74.83,25.132,94.962,49.966,94.962    c24.834,0,44.966-20.132,44.966-44.966C94.932,25.162,74.8,5.03,49.966,5.03z M49.966,89.385    c-21.719,0-39.389-17.67-39.389-39.388c0-21.719,17.67-39.389,39.389-39.389c21.719,0,39.389,17.669,39.389,39.389    C89.355,71.715,71.685,89.385,49.966,89.385z"></path></g><g><path fill="#000000" d="M49.966,27.682c1.54,0,2.789-1.249,2.789-2.789v-5.921c0-1.54-1.248-2.789-2.789-2.789    c-1.54,0-2.789,1.249-2.789,2.789v5.921C47.177,26.434,48.426,27.682,49.966,27.682z"></path></g><g><path fill="#000000" d="M30.001,26.088c-1.089-1.089-2.855-1.089-3.944,0c-1.089,1.089-1.089,2.855,0,3.943l4.332,4.244    c1.089,1.089,2.855,1.089,3.943,0c1.089-1.089,1.089-2.855,0-3.943L30.001,26.088z"></path></g><g><path fill="#000000" d="M24.952,47.208h-6.009c-1.54,0-2.789,1.248-2.789,2.789c0,1.54,1.249,2.788,2.789,2.788h6.009    c1.54,0,2.789-1.249,2.789-2.788C27.74,48.456,26.492,47.208,24.952,47.208z"></path></g><g><path fill="#000000" d="M80.989,47.208h-5.92c-1.54,0-2.789,1.248-2.789,2.789c0,1.54,1.249,2.788,2.789,2.788h5.92    c1.54,0,2.789-1.249,2.789-2.788C83.777,48.456,82.529,47.208,80.989,47.208z"></path></g><g><path fill="#000000" d="M73.875,26.088c-1.089-1.089-2.855-1.089-3.944,0l-4.332,4.244c-1.089,1.089-1.089,2.855,0,3.943    c1.089,1.089,2.855,1.089,3.944,0l4.332-4.244C74.963,28.942,74.963,27.177,73.875,26.088z"></path></g><g><path fill="#000000" d="M52.754,64.715v-20.35c0-1.54-1.248-2.789-2.789-2.789c-1.54,0-2.789,1.248-2.789,2.789v20.35    c-3.242,1.152-5.577,4.216-5.577,7.853c0,4.62,3.745,8.366,8.366,8.366c4.621,0,8.366-3.745,8.366-8.366    C58.332,68.931,55.996,65.867,52.754,64.715z"></path></g></g></svg>