<svg xmlns="http://www.w3.org/2000/svg" xmlns:xlink="http://www.w3.org/1999/xlink" version="1.1" x="0px" y="0px" viewBox="0 0 100 100" enable-background="new 0 0 100 100" xml:space="preserve"><path d="M95,52.5c0-10.2-8.6-19-20.8-22.8C70.7,18.4,56.7,10,40,10C20.7,10,5,21.2,5,35c0,6.5,3.5,12.7,9.7,17.3l-5.2,9.8  c-0.5,1-0.3,2.2,0.4,2.9c0.5,0.5,1.1,0.7,1.8,0.7c0.4,0,0.8-0.1,1.2-0.3l13.2-6.9C29.9,69.4,43.6,77.5,60,77.5c4.5,0,9-0.6,13.2-1.8  l14,7.3c0.4,0.2,0.8,0.3,1.2,0.3c0.6,0,1.3-0.3,1.8-0.7c0.8-0.8,1-2,0.4-2.9l-5.2-9.8C91.5,65.2,95,59,95,52.5z M80.8,66.9  c-1.1,0.7-1.5,2.1-0.9,3.3l2.5,4.7l-7.8-4.1c-0.4-0.2-0.8-0.3-1.2-0.3c-0.3,0-0.5,0-0.7,0.1c-4,1.3-8.3,1.9-12.7,1.9  c-13,0-24-5.5-28.2-13.2c2.7,0.5,5.4,0.7,8.2,0.7c19.2,0,34.9-11.1,35-24.8c9,3.5,15,9.9,15,17.3C90,57.9,86.7,63.1,80.8,66.9z   M20.1,52.6c0.6-1.1,0.2-2.6-0.9-3.3c-6-3.8-9.2-8.9-9.2-14.4c0-11,13.5-20,30-20s30,9,30,20S56.5,55,40,55c-4.4,0-8.7-0.6-12.7-1.9  c-0.6-0.2-1.3-0.1-1.9,0.2l-7.8,4.1L20.1,52.6z"></path></svg>