<?xml version="1.0" encoding="utf-8"?>
<!-- Generator: Avocode 2.4.3-3630f5a - http://avocode.com -->
<svg height="5" width="25" xmlns:xlink="http://www.w3.org/1999/xlink" xmlns="http://www.w3.org/2000/svg" viewBox="0 0 25 5">
    <path fill="#595959" fill-rule="evenodd" d="M 22.5 5 C 21.12 5 20 3.88 20 2.5 C 20 1.12 21.12 0 22.5 0 C 23.88 0 25 1.12 25 2.5 C 25 3.88 23.88 5 22.5 5 Z M 12.5 5 C 11.12 5 10 3.88 10 2.5 C 10 1.12 11.12 0 12.5 0 C 13.88 0 15 1.12 15 2.5 C 15 3.88 13.88 5 12.5 5 Z M 2.5 5 C 1.12 5 0 3.88 0 2.5 C 0 1.12 1.12 0 2.5 0 C 3.88 0 5 1.12 5 2.5 C 5 3.88 3.88 5 2.5 5 Z" />
</svg>